<svg width="56" height="56" viewBox="0 0 56 56" fill="none" xmlns="http://www.w3.org/2000/svg">
<g id="leaf " clip-path="url(#clip0_202_277)">
<path id="Vector" d="M20.2121 20.246C26.6685 11.269 23.8913 3.96202 23.8991 3.95336C23.7622 3.58742 23.9479 3.17988 24.3138 3.04299C24.4984 2.97394 24.7034 2.98507 24.8795 3.07361C36.5321 8.64949 41.5465 15.8475 42.5067 22.3552C42.8884 24.8836 42.6498 27.4669 41.8114 29.8827C41.0431 32.1117 39.7634 34.1298 38.0748 35.7752C34.8266 38.9121 30.2873 40.3582 25.8072 38.8922C24.6612 38.5183 23.5798 37.9698 22.6012 37.2659C20.638 35.857 19.1489 33.8851 18.3309 31.6114C17.4629 29.1795 17.4353 26.527 18.2525 24.0777C18.7039 22.7067 19.3649 21.4142 20.2121 20.246Z" fill="#272727"/>
<path id="Vector_2" d="M24.0409 4.18505C23.7572 3.91661 23.7446 3.46888 24.0131 3.18512C24.2815 2.90135 24.7293 2.88882 25.013 3.15728C25.0339 3.17702 25.0535 3.19802 25.0718 3.22017C25.0978 3.24358 30.7238 9.1408 31.5276 20.5389L31.5359 20.6458C31.7095 23.3098 31.6238 25.9844 31.2802 28.6318L35.1272 25.6837C35.4494 25.4627 35.8897 25.5448 36.1106 25.867C36.3105 26.1587 36.2644 26.5532 36.0025 26.7909L30.975 30.632C29.8494 37.2491 25.8818 46.6103 31.1342 52.4693C31.3872 52.767 31.3509 53.2134 31.0532 53.4664C30.7698 53.7072 30.3484 53.6874 30.0888 53.4212C23.7902 46.4007 28.3734 37.7035 29.6277 30.1825L29.6442 30.077C30.1542 27.0841 30.329 24.0437 30.1654 21.0121L25.6435 17.6989C25.321 17.4785 25.2383 17.0383 25.4587 16.7157C25.6792 16.3932 26.1194 16.3105 26.4419 16.5309C26.4552 16.5401 26.4683 16.5496 26.481 16.5597L29.9846 19.1391C28.8917 9.25877 24.0614 4.20875 24.0409 4.18505Z" fill="white"/>
</g>
<defs>
<clipPath id="clip0_202_277">
<rect width="38.8832" height="38.8832" fill="white" transform="translate(0.73468 29.0383) rotate(-48)"/>
</clipPath>
</defs>
</svg>
