<svg width="10" height="10" viewBox="0 0 10 10" fill="none" xmlns="http://www.w3.org/2000/svg">
<g id="ChevronDown">
<path id="Vector" d="M0.939954 2.81554C0.980594 2.7748 1.02887 2.74248 1.08202 2.72042C1.13518 2.69836 1.19216 2.68701 1.2497 2.68701C1.30725 2.68701 1.36423 2.69836 1.41738 2.72042C1.47051 2.74246 1.51876 2.77477 1.55939 2.81548L1.55935 2.81544L1.47096 2.90381L1.55945 2.81554L0.939954 2.81554ZM0.939954 2.81554L1.02845 2.90382L0.939954 2.81554ZM5.11948 7.16427L5.16738 7.27972C5.11423 7.30177 5.05725 7.31313 4.9997 7.31313C4.94216 7.31313 4.88518 7.30177 4.83202 7.27972C4.77892 7.25768 4.73068 7.2254 4.69007 7.18471C4.69003 7.18467 4.68999 7.18463 4.68995 7.1846L0.940178 3.43482C0.940153 3.4348 0.940128 3.43477 0.940103 3.43475L5.11948 7.16427ZM5.11948 7.16427L5.16738 7.27972C5.22049 7.25768 5.26873 7.2254 5.30934 7.18471L5.11948 7.16427ZM8.44006 2.81544L4.9997 6.2564L5.30945 7.1846L9.05934 3.43471C9.1 3.39405 9.13226 3.34577 9.15427 3.29264C9.17627 3.23952 9.1876 3.18257 9.1876 3.12507C9.1876 3.06757 9.17627 3.01062 9.15427 2.9575C9.13226 2.90437 9.1 2.85609 9.05934 2.81543C9.01868 2.77477 8.97041 2.74251 8.91728 2.72051C8.86415 2.6985 8.80721 2.68718 8.7497 2.68718C8.6922 2.68718 8.63526 2.6985 8.58213 2.72051L8.62996 2.83599L8.58213 2.72051C8.529 2.74251 8.48073 2.77477 8.44007 2.81543L8.44006 2.81544Z" fill="#272727" stroke="#272727" stroke-width="0.25"/>
</g>
</svg>
