<svg width="30" height="30" viewBox="0 0 30 30" fill="none" xmlns="http://www.w3.org/2000/svg">
<g id="leaf " clip-path="url(#clip0_202_172)">
<path id="Vector" d="M10.7999 10.9713C14.225 6.20904 12.7517 2.33272 12.7558 2.32812C12.6832 2.134 12.7817 1.9178 12.9758 1.84517C13.0737 1.80854 13.1825 1.81445 13.2759 1.86142C19.4576 4.81942 22.1177 8.63792 22.6271 12.0903C22.8296 13.4316 22.703 14.802 22.2583 16.0836C21.8507 17.2661 21.1718 18.3367 20.276 19.2096C18.5529 20.8737 16.1447 21.6408 13.7681 20.8631C13.1601 20.6647 12.5864 20.3738 12.0673 20.0004C11.0258 19.2529 10.2359 18.2069 9.80189 17.0006C9.34145 15.7106 9.32679 14.3034 9.76033 13.004C9.99975 12.2768 10.3504 11.5911 10.7999 10.9713Z" fill="white"/>
<path id="Vector_2" d="M12.8311 2.45089C12.6805 2.30848 12.6739 2.07096 12.8163 1.92043C12.9587 1.76989 13.1962 1.76324 13.3468 1.90565C13.3579 1.91613 13.3682 1.92727 13.378 1.93902C13.3918 1.95144 16.3763 5.07991 16.8027 11.1266L16.8072 11.1833C16.8992 12.5965 16.8538 14.0154 16.6715 15.4198L18.7123 13.8559C18.8832 13.7387 19.1168 13.7822 19.234 13.9531C19.3401 14.1079 19.3156 14.3172 19.1767 14.4432L16.5096 16.481C15.9125 19.9913 13.8076 24.9574 16.594 28.0656C16.7282 28.2235 16.709 28.4604 16.5511 28.5946C16.4007 28.7223 16.1772 28.7118 16.0395 28.5706C12.6981 24.8462 15.1294 20.2324 15.7948 16.2425L15.8036 16.1865C16.0742 14.5988 16.1669 12.9858 16.0801 11.3776L13.6812 9.61997C13.5101 9.50302 13.4663 9.2695 13.5832 9.0984C13.7002 8.92729 13.9337 8.88341 14.1048 9.00036C14.1119 9.00521 14.1188 9.01029 14.1255 9.01563L15.9842 10.384C15.4044 5.14249 12.842 2.46346 12.8311 2.45089Z" fill="#56B280"/>
</g>
<defs>
<clipPath id="clip0_202_172">
<rect width="20.6274" height="20.6274" fill="white" transform="translate(0.467224 15.6355) rotate(-48)"/>
</clipPath>
</defs>
</svg>
